<svg width="300" height="400" xmlns="http://www.w3.org/2000/svg"><path d="M0 81h27V45h55v32h27V53h27v40h28V49h54v-8h27v68h28V61h27V0H0z" fill="#52d2ab"/><path d="M0 193h27v-8h28v-48h27v88h27v-60h27v8h28v8h27v-64h27v-8h27v64h28v-36h27v48V47v12h-27v48h-28V39h-27v8h-54v44h-28V51h-27v24H82V43H27v36H0z" fill="#33a58e"/><path d="M0 221h27v44h28v-56h27v64h27v-48h27v20h28v-16h27v-36h27v-8h27v16h28v-28h27v92-130h-27v36h-28v-64h-27v8h-27v64h-27v-8h-28v-8h-27v60H82v-88H55v48H27v8H0z" fill="#1c796e"/><path d="M0 289h27v36h28v-76h27v76h27v-64h27v12h28v8h27v-24h27v-32h27v16h28v-4h27v64-130h-27v28h-28v-16h-27v8h-27v36h-27v16h-28v-20h-27v48H82v-64H55v56H27v-44H0z" fill="#0e504c"/><path d="M0 401h300V235h-27v4h-28v-16h-27v32h-27v24h-27v-8h-28v-12h-27v64H82v-76H55v76H27v-36H0z" fill="#072a2a"/></svg>