<svg width="300" height="400" xmlns="http://www.w3.org/2000/svg"><path fill="#52D2AB" d="M0 0h300v400H0z"/><path d="M72 400c18.3-18 36.6-36.1 38.7-61.5 2.2-25.4-11.8-58.2-2.8-78.1 9-19.9 41-27.1 65.7-34.3 24.8-7.3 42.3-14.7 62.1-23.9C255.6 193 277.8 182 300 171v229z" fill="#00c7b6"/><path d="M117.6 400c14.6-14.4 29.3-28.9 31-49.2 1.7-20.3-9.5-46.5-2.3-62.5 7.2-15.9 32.8-21.6 52.6-27.5 19.8-5.8 33.8-11.7 49.7-19.1 15.9-7.3 33.6-16.1 51.4-24.9V400z" fill="#00acd7"/><path d="M163.2 400c11-10.8 22-21.7 23.2-36.9 1.3-15.2-7.1-34.9-1.7-46.9 5.4-11.9 24.6-16.2 39.5-20.6 14.8-4.3 25.3-8.8 37.2-14.3 11.9-5.5 25.3-12.1 38.6-18.7V400z" fill="#008bf3"/><path d="M208.8 400c7.3-7.2 14.6-14.4 15.5-24.6.9-10.2-4.8-23.3-1.2-31.2 3.6-8 16.4-10.9 26.4-13.8 9.9-2.9 16.8-5.8 24.8-9.5 7.9-3.7 16.8-8.1 25.7-12.5V400z" fill="#005fec"/><path d="M254.4 400c3.7-3.6 7.3-7.2 7.7-12.3.5-5.1-2.3-11.6-.5-15.6 1.8-4 8.2-5.4 13.1-6.9 5-1.4 8.5-2.9 12.4-4.8 4-1.8 8.5-4 12.9-6.2V400z" fill="#273dd6"/><g><path d="M194 0c-2.4 20.1-4.7 40.2-10.4 59.6-5.8 19.4-14.8 38.1-27.5 53.8-12.6 15.8-28.9 28.6-45 39.5-16.1 10.9-32 19.7-50.5 33.5S21 218.8 0 237.5V0z" fill="#00c7b6"/><path d="M155.2 0c-1.9 16.1-3.8 32.2-8.4 47.7-4.5 15.5-11.8 30.5-21.9 43.1-10.1 12.6-23.1 22.8-36 31.5-12.9 8.7-25.7 15.8-40.4 26.8-14.8 11-31.7 26-48.5 40.9V0z" fill="#00acd7"/><path d="M116.4 0c-1.4 12.1-2.8 24.1-6.3 35.8-3.4 11.6-8.8 22.8-16.4 32.3-7.6 9.4-17.4 17.1-27 23.6-9.7 6.6-19.3 11.9-30.4 20.1-11.1 8.3-23.7 19.5-36.3 30.7V0z" fill="#008bf3"/><path d="M77.6 0c-.9 8-1.9 16.1-4.2 23.9-2.3 7.7-5.9 15.2-10.9 21.5-5.1 6.3-11.6 11.4-18.1 15.8-6.4 4.3-12.8 7.9-20.2 13.4C16.8 80.1 8.4 87.5 0 95V0z" fill="#005fec"/><path d="M38.8 0c-.5 4-.9 8-2.1 11.9-1.1 3.9-2.9 7.6-5.5 10.8-2.5 3.1-5.8 5.7-9 7.9s-6.4 3.9-10.1 6.7C8.4 40 4.2 43.8 0 47.5V0z" fill="#273dd6"/></g></svg>