<svg width="300" height="400" xmlns="http://www.w3.org/2000/svg"><path fill="#DEEFCB" d="M0 0h300v400H0z"/><path d="M300 228c-18-18.3-36.1-36.6-61.5-38.7-25.4-2.2-58.2 11.8-78.1 2.8-19.9-9-27.1-41-34.3-65.7-7.3-24.8-14.7-42.3-23.9-62.1C93 44.4 82 22.2 71 0h229z" fill="#bed5b5"/><path d="M300 182.4c-14.4-14.6-28.9-29.3-49.2-31-20.3-1.7-46.5 9.5-62.5 2.3-15.9-7.2-21.6-32.8-27.5-52.6-5.8-19.8-11.7-33.8-19.1-49.7-7.3-15.9-16.1-33.6-24.9-51.4H300z" fill="#82a18b"/><path d="M300 136.8c-10.8-11-21.7-22-36.9-23.2-15.2-1.3-34.9 7.1-46.9 1.7-11.9-5.4-16.2-24.6-20.6-39.5-4.3-14.8-8.8-25.3-14.3-37.2-5.5-11.9-12.1-25.3-18.7-38.6H300z" fill="#4c6f63"/><path d="M300 91.2c-7.2-7.3-14.4-14.6-24.6-15.5-10.2-.9-23.3 4.8-31.2 1.2-8-3.6-10.9-16.4-13.8-26.4-2.9-9.9-5.8-16.8-9.5-24.8-3.7-7.9-8.1-16.8-12.5-25.7H300z" fill="#1e403d"/><path d="M300 45.6c-3.6-3.7-7.2-7.3-12.3-7.7-5.1-.5-11.6 2.3-15.6.5-4-1.8-5.4-8.2-6.9-13.1-1.4-5-2.9-8.5-4.8-12.4-1.8-4-4-8.5-6.2-12.9H300z" fill="#072a2a"/><g><path d="M0 206c20.1 2.4 40.2 4.7 59.6 10.4 19.4 5.8 38.1 14.8 53.8 27.5 15.8 12.6 28.6 28.9 39.5 45 10.9 16.1 19.7 32 33.5 50.5s32.4 39.6 51.1 60.6H0z" fill="#bed5b5"/><path d="M0 244.8c16.1 1.9 32.2 3.8 47.7 8.4 15.5 4.5 30.5 11.8 43.1 21.9 12.6 10.1 22.8 23.1 31.5 36 8.7 12.9 15.8 25.7 26.8 40.4 11 14.8 26 31.7 40.9 48.5H0z" fill="#82a18b"/><path d="M0 283.6c12.1 1.4 24.1 2.8 35.8 6.3 11.6 3.4 22.8 8.8 32.3 16.4 9.4 7.6 17.1 17.4 23.6 27 6.6 9.7 11.9 19.3 20.1 30.4 8.3 11.1 19.5 23.7 30.7 36.3H0z" fill="#4c6f63"/><path d="M0 322.4c8 .9 16.1 1.9 23.9 4.2 7.7 2.3 15.2 5.9 21.5 10.9 6.3 5.1 11.4 11.6 15.8 18.1 4.3 6.4 7.9 12.8 13.4 20.2 5.5 7.4 12.9 15.8 20.4 24.2H0z" fill="#1e403d"/><path d="M0 361.2c4 .5 8 .9 11.9 2.1 3.9 1.1 7.6 2.9 10.8 5.5 3.1 2.5 5.7 5.8 7.9 9s3.9 6.4 6.7 10.1c2.7 3.7 6.5 7.9 10.2 12.1H0z" fill="#072a2a"/></g></svg>