<svg width="300" height="400" xmlns="http://www.w3.org/2000/svg"><path fill="#52D2AB" d="M0 0h300v400H0z"/><path d="M75 400c13.2-15.5 26.4-31 37.8-42.7 11.5-11.7 21.2-19.7 19.6-38-1.5-18.3-14.4-47-4.4-56.5 10-9.4 42.7.4 59.8-3.5 17-4 18.4-21.8 25.9-38.6 7.4-16.8 20.8-32.6 36.2-40.1 15.4-7.4 32.8-6.5 50.1-5.6v225z" fill="#42bb9d"/><path d="M120 400c10.5-12.4 21.1-24.8 30.3-34.2 9.1-9.4 16.9-15.7 15.6-30.4-1.2-14.6-11.5-37.6-3.5-45.1 8-7.6 34.2.3 47.8-2.9 13.7-3.2 14.8-17.4 20.7-30.8 6-13.5 16.7-26.1 29-32.1 12.4-5.9 26.2-5.2 40.1-4.5v180z" fill="#278e7e"/><path d="M165 400c7.9-9.3 15.8-18.6 22.7-25.6 6.9-7.1 12.7-11.8 11.8-22.8-1-11-8.7-28.2-2.7-33.9 6-5.7 25.6.2 35.9-2.1 10.2-2.4 11-13.1 15.5-23.2 4.4-10.1 12.5-19.5 21.8-24 9.2-4.5 19.6-3.9 30-3.4v135z" fill="#14645d"/><path d="M210 400c5.3-6.2 10.5-12.4 15.1-17.1 4.6-4.7 8.5-7.9 7.9-15.2-.7-7.3-5.8-18.8-1.8-22.6 4-3.7 17.1.2 23.9-1.4 6.8-1.6 7.4-8.7 10.4-15.4 2.9-6.7 8.3-13.1 14.5-16 6.1-3 13.1-2.7 20-2.3v90z" fill="#0a3c3b"/><path d="M255 400c2.6-3.1 5.3-6.2 7.6-8.5 2.3-2.4 4.2-4 3.9-7.6-.3-3.7-2.9-9.4-.9-11.3 2-1.9 8.5 0 12-.7 3.4-.8 3.6-4.4 5.1-7.8 1.5-3.3 4.2-6.5 7.3-8 3.1-1.5 6.5-1.3 10-1.1v45z" fill="#072a2a"/><g><path d="M225 0c1.2 18 2.3 36-6.6 49.8-9 13.9-28.1 23.5-35.5 38.3-7.4 14.7-3.2 34.6-7.8 51.6-4.5 16.9-17.7 31-34.8 36.2-17.1 5.2-38 1.6-54.4 2.5-16.4.8-28.3 6.1-41.8 14.6-13.6 8.5-28.9 20.3-44.1 32V0z" fill="#42bb9d"/><path d="M180 0c.9 14.4 1.9 28.8-5.3 39.9-7.2 11-22.4 18.8-28.4 30.6-5.9 11.8-2.6 27.7-6.2 41.2-3.6 13.6-14.2 24.8-27.9 29-13.6 4.2-30.4 1.3-43.5 2-13.1.7-22.6 4.9-33.5 11.7-10.8 6.8-23 16.2-35.2 25.6V0z" fill="#278e7e"/><path d="M135 0c.7 10.8 1.4 21.6-4 29.9-5.3 8.3-16.8 14.1-21.3 22.9-4.4 8.9-1.9 20.8-4.6 31-2.7 10.2-10.7 18.6-20.9 21.7-10.3 3.2-22.8 1-32.7 1.5-9.8.5-16.9 3.7-25.1 8.8C18.3 120.9 9.1 128 0 135V0z" fill="#14645d"/><path d="M90 0c.5 7.2.9 14.4-2.6 19.9-3.6 5.6-11.3 9.4-14.2 15.3-3 5.9-1.3 13.9-3.1 20.7-1.9 6.7-7.2 12.4-14 14.5-6.8 2.1-15.2.6-21.7 1-6.6.3-11.3 2.4-16.8 5.8C12.2 80.6 6.1 85.3 0 90V0z" fill="#0a3c3b"/><path d="M45 0c.2 3.6.5 7.2-1.3 10-1.8 2.7-5.6 4.7-7.1 7.6-1.5 3-.7 6.9-1.6 10.3-.9 3.4-3.5 6.2-6.9 7.3-3.5 1-7.6.3-10.9.5-3.3.1-5.7 1.2-8.4 2.9S3 42.7 0 45V0z" fill="#072a2a"/></g></svg>