<svg width="400" height="475" fill="none" xmlns="http://www.w3.org/2000/svg"><path d="M275 200c0 41.421-33.579 75-75 75s-75-33.579-75-75 33.579-75 75-75 75 33.579 75 75z" fill="#FE5177"/><path d="M200 425H50V275h150v150z" fill="#52D2AB"/><path fill-rule="evenodd" clip-rule="evenodd" d="M125 350v-38.003c20.314-.266 36.731-16.683 36.997-36.997H200c0 41.421-33.579 75-75 75zM200 350v38.003c-20.314.266-36.731 16.683-36.997 36.997H125c0-41.421 33.579-75 75-75z" fill="#FFEFE9"/><path fill-rule="evenodd" clip-rule="evenodd" d="M50 350v38.003c20.314.266 36.731 16.683 36.997 36.997H125c0-41.421-33.579-75-75-75z" fill="#FFCEDA"/><path fill-rule="evenodd" clip-rule="evenodd" d="M50 275c0-41.421 33.579-75 75-75s75 33.579 75 75h-37.003c.002-.166.003-.333.003-.5 0-20.711-16.789-37.5-37.5-37.5S88 253.789 88 274.5c0 .167.001.334.003.5H50z" fill="#273DD6"/><path fill-rule="evenodd" clip-rule="evenodd" d="M200 125c0 41.421 33.579 75 75 75v-75h-75z" fill="#FFCEDA"/><path d="M200 50h150v150L200 50z" fill="#52D2AB"/><path fill-rule="evenodd" clip-rule="evenodd" d="M275 50c0 41.421 33.579 75 75 75V50h-75z" fill="#273DD6"/></svg>