<svg width="125" height="125" viewBox="0 0 125 125" fill="none" xmlns="http://www.w3.org/2000/svg">
<path fill-rule="evenodd" clip-rule="evenodd" d="M42.85 66.4321H13V74.1688H38.87L13 124.457H21.5152L51.2716 66.4321H43.0169H42.85Z" fill="#FE5177"/>
<path d="M59.0903 1L66.9093 1V59.0247H59.0903L59.0903 1Z" fill="#FE5177"/>
<path d="M59.0903 66.4321H66.9093V124.457H59.0903L59.0903 66.4321Z" fill="#FE5177"/>
<path opacity="0.1" fill-rule="evenodd" clip-rule="evenodd" d="M42.85 59.0247H13V51.288H38.87L13 0.999966H21.5152L51.2716 59.0247H43.0169H42.85Z" fill="#FE5177"/>
<path fill-rule="evenodd" clip-rule="evenodd" d="M107.36 25.971C110.776 23.4673 113 19.3902 113 14.786C113 7.17221 106.92 1 99.4196 1C91.9194 1 85.8394 7.17221 85.8394 14.786C85.8394 17.1952 86.4481 19.46 87.518 21.4306C80.0688 24.0766 74.7285 31.2495 74.7285 39.6831C74.7285 50.3652 83.2959 59.0247 93.8643 59.0247C104.433 59.0247 113 50.3652 113 39.6831C113 34.324 110.844 29.4739 107.36 25.971ZM105.349 14.786C105.349 18.1103 102.694 20.8053 99.4196 20.8053C96.1449 20.8053 93.4902 18.1103 93.4902 14.786C93.4902 11.4617 96.1449 8.76676 99.4196 8.76676C102.694 8.76676 105.349 11.4617 105.349 14.786ZM105.346 39.6831C105.346 46.0924 100.205 51.2881 93.8643 51.2881C87.5233 51.2881 82.3828 46.0924 82.3828 39.6831C82.3828 33.2739 87.5233 28.0782 93.8643 28.0782C100.205 28.0782 105.346 33.2739 105.346 39.6831Z" fill="#FE5177"/>
<path opacity="0.1" fill-rule="evenodd" clip-rule="evenodd" d="M113 85.7737C113 75.0916 104.433 66.4321 93.8643 66.4321C83.2959 66.4321 74.7285 75.0916 74.7285 85.7737C74.7285 94.2073 80.0688 101.38 87.5179 104.026C86.4481 105.997 85.8394 108.261 85.8394 110.671C85.8394 118.284 91.9194 124.457 99.4196 124.457C106.92 124.457 113 118.284 113 110.671C113 106.066 110.777 101.989 107.36 99.4856C110.844 95.9827 113 91.1327 113 85.7737ZM105.346 85.7737C105.346 79.3645 100.205 74.1688 93.8643 74.1688C87.5233 74.1688 82.3828 79.3645 82.3828 85.7737C82.3828 92.1829 87.5233 97.3786 93.8643 97.3786C100.205 97.3786 105.346 92.1829 105.346 85.7737ZM105.349 110.671C105.349 107.346 102.694 104.651 99.4196 104.651C96.1449 104.651 93.4902 107.346 93.4902 110.671C93.4902 113.995 96.1449 116.69 99.4196 116.69C102.694 116.69 105.349 113.995 105.349 110.671Z" fill="#FE5177"/>
</svg>
