<svg width="100" height="124" fill="none" xmlns="http://www.w3.org/2000/svg"><path fill-rule="evenodd" clip-rule="evenodd" d="M29.85 65.432H0v7.737h25.87L0 123.457h8.515l29.757-58.025H29.85z" fill="#FFEFE9"/><path d="M46.09 0h7.82v58.025h-7.82V0zM46.09 65.432h7.82v58.025h-7.82V65.432z" fill="#FFEFE9"/><path opacity=".1" fill-rule="evenodd" clip-rule="evenodd" d="M29.85 58.025H0v-7.737h25.87L0 0h8.515l29.757 58.025H29.85z" fill="#FFEFE9"/><path fill-rule="evenodd" clip-rule="evenodd" d="M94.36 24.971A13.833 13.833 0 0 0 100 13.786C100 6.172 93.92 0 86.42 0S72.84 6.172 72.84 13.786c0 2.41.608 4.674 1.678 6.645-7.45 2.646-12.79 9.819-12.79 18.252 0 10.682 8.568 19.342 19.136 19.342 10.569 0 19.136-8.66 19.136-19.342 0-5.359-2.156-10.21-5.64-13.712zM92.35 13.786c0 3.324-2.655 6.02-5.93 6.02-3.274 0-5.929-2.696-5.929-6.02 0-3.324 2.655-6.02 5.93-6.02 3.274 0 5.929 2.696 5.929 6.02zm-.003 24.897c0 6.41-5.14 11.605-11.482 11.605-6.34 0-11.481-5.196-11.481-11.605 0-6.41 5.14-11.605 11.481-11.605s11.482 5.196 11.482 11.605z" fill="#FFEFE9"/><path opacity=".1" fill-rule="evenodd" clip-rule="evenodd" d="M100 84.774c0-10.682-8.567-19.342-19.136-19.342-10.568 0-19.136 8.66-19.136 19.342 0 8.433 5.34 15.606 12.79 18.252a13.888 13.888 0 0 0-1.679 6.645c0 7.613 6.08 13.786 13.58 13.786S100 117.284 100 109.671c0-4.605-2.222-8.682-5.639-11.185A19.386 19.386 0 0 0 100 84.774zm-7.654 0c0-6.41-5.14-11.605-11.482-11.605-6.34 0-11.481 5.196-11.481 11.605 0 6.409 5.14 11.605 11.481 11.605s11.482-5.196 11.482-11.605zm.003 24.897c0-3.325-2.655-6.02-5.93-6.02-3.274 0-5.929 2.695-5.929 6.02 0 3.324 2.655 6.019 5.93 6.019 3.274 0 5.929-2.695 5.929-6.019z" fill="#FFEFE9"/></svg>