<svg width="300" height="400" xmlns="http://www.w3.org/2000/svg"><path fill="#FE5177" d="M0 0h300v400H0z"/><path d="M62.5 400c19.4-18.5 38.7-37 41.6-63.7 2.8-26.6-10.9-61.5 3.8-75.9 14.6-14.4 57.5-8.2 83.9-9.3 26.5-1 36.4-9.2 51.6-25.1 15.3-16 36-39.8 56.6-63.5V400z" fill="#fa457e"/><path d="M96.4 400c16.6-15.8 33.2-31.7 35.7-54.6 2.4-22.8-9.3-52.7 3.2-65.1 12.5-12.3 49.3-7 72-7.9 22.6-.9 31.1-7.9 44.2-21.6 13.1-13.7 30.8-34 48.5-54.4V400z" fill="#ec2f8d"/><path d="M130.4 400c13.8-13.2 27.6-26.4 29.7-45.5 2-19-7.8-43.9 2.7-54.2 10.4-10.3 41.1-5.9 59.9-6.6 18.9-.8 26-6.6 36.9-18 10.9-11.4 25.7-28.4 40.4-45.3V400z" fill="#d9209f"/><path d="M164.3 400c11.1-10.6 22.1-21.1 23.7-36.4 1.7-15.2-6.2-35.2 2.2-43.4 8.4-8.2 32.9-4.7 48-5.3 15.1-.5 20.8-5.2 29.5-14.4 8.7-9.1 20.5-22.6 32.3-36.2V400z" fill="#bd1fb0"/><path d="M198.2 400c8.3-7.9 16.6-15.8 17.8-27.3 1.3-11.4-4.6-26.4 1.7-32.5 6.2-6.2 24.6-3.6 35.9-4 11.4-.4 15.6-3.9 22.2-10.8 6.5-6.8 15.4-17 24.2-27.2V400z" fill="#982ac1"/><path d="M232.1 400c5.6-5.3 11.1-10.6 11.9-18.2.8-7.6-3.1-17.6 1.1-21.7 4.2-4.1 16.4-2.3 24-2.6 7.5-.3 10.4-2.7 14.7-7.2 4.4-4.6 10.3-11.4 16.2-18.2V400z" fill="#5e37d0"/><path d="M266.1 400c2.7-2.6 5.5-5.3 5.9-9.1.4-3.8-1.5-8.8.6-10.8 2-2.1 8.2-1.2 11.9-1.4 3.8-.1 5.2-1.3 7.4-3.6 2.2-2.2 5.2-5.6 8.1-9V400z" fill="#273dd6"/><g><path d="M237.5 0c3.5 29.2 7.1 58.5-11.6 73.4-18.7 14.9-59.7 15.4-74.6 36.5-14.9 21.1-3.6 62.7-15.5 77-11.9 14.3-46.9 1.3-73.4 5.2C35.9 196 18 216.8 0 237.5V0z" fill="#fa457e"/><path d="M203.6 0c3 25.1 6.1 50.1-10 62.9-16 12.8-51.2 13.3-63.9 31.3-12.8 18.1-3.1 53.7-13.3 66-10.2 12.3-40.2 1.1-62.9 4.5C30.8 168 15.4 185.8 0 203.6V0z" fill="#ec2f8d"/><path d="M169.6 0c2.6 20.9 5.1 41.8-8.3 52.4-13.3 10.7-42.6 11.1-53.2 26.1-10.7 15.1-2.6 44.8-11.1 55-8.5 10.2-33.5.9-52.4 3.7C25.7 140 12.8 154.8 0 169.6V0z" fill="#d9209f"/><path d="M135.7 0c2 16.7 4.1 33.4-6.6 41.9-10.7 8.6-34.2 8.9-42.7 20.9-8.5 12-2 35.8-8.8 44-6.8 8.2-26.8.8-41.9 3C20.5 112 10.3 123.9 0 135.7V0z" fill="#bd1fb0"/><path d="M101.8 0c1.5 12.5 3 25.1-5 31.5-8 6.3-25.6 6.6-32 15.6-6.3 9-1.5 26.9-6.6 33-5.1 6.1-20.1.6-31.4 2.2C15.4 84 7.7 92.9 0 101.8V0z" fill="#982ac1"/><path d="M67.9 0c1 8.4 2 16.7-3.4 21-5.3 4.2-17 4.4-21.3 10.4-4.2 6-1 17.9-4.4 22-3.4 4.1-13.4.4-21 1.5-7.5 1.1-12.7 7-17.8 13V0z" fill="#5e37d0"/><path d="M33.9 0c.5 4.2 1 8.4-1.6 10.5-2.7 2.1-8.6 2.2-10.7 5.2-2.1 3-.5 9-2.2 11-1.7 2-6.7.2-10.5.7C5.1 28 2.6 31 0 33.9V0z" fill="#273dd6"/></g></svg>