<svg width="300" height="400" xmlns="http://www.w3.org/2000/svg"><path fill="#ffefe9" d="M0 0h300v400H0z"/><path d="M300 231c-25.8-2.5-51.5-4.9-68.6-19.9-17.1-14.9-25.5-42.4-43.7-56.6-18.1-14.2-46-15.2-61.6-28.1-15.7-13-19.2-37.8-27.7-60.9-8.6-23-22.2-44.3-35.9-65.5H300z" fill="#ffded3"/><path d="M300 184.8c-20.6-2-41.2-3.9-54.9-15.9-13.7-12-20.4-33.9-34.9-45.3-14.5-11.4-36.8-12.2-49.4-22.5-12.5-10.3-15.3-30.2-22.1-48.7C131.9 34 120.9 17 110 0h190z" fill="#ffbbad"/><path d="M300 138.6c-15.5-1.5-30.9-2.9-41.2-11.9-10.2-9-15.3-25.5-26.2-34-10.8-8.5-27.6-9.1-37-16.9-9.4-7.7-11.4-22.7-16.6-36.5-5.1-13.8-13.3-26.6-21.5-39.3H300z" fill="#ff9591"/><path d="M300 92.4c-10.3-1-20.6-2-27.4-7.9-6.9-6-10.2-17-17.5-22.7-7.3-5.7-18.4-6.1-24.7-11.3-6.2-5.1-7.6-15.1-11-24.3C215.9 17 210.5 8.5 205 0h95z" fill="#ff6a7d"/><path d="M300 46.2c-5.2-.5-10.3-1-13.7-4-3.4-3-5.1-8.5-8.8-11.3-3.6-2.8-9.2-3-12.3-5.6-3.1-2.6-3.8-7.6-5.5-12.2-1.7-4.6-4.5-8.9-7.2-13.1H300z" fill="#fe5177"/><g><path d="M0 180c17 19.5 34 39.1 58.4 40.3 24.4 1.1 56.2-16.1 81.2-12.4 25 3.6 43.2 28.1 51.3 53.4 8.1 25.2 6.1 51.2 6.9 74.4.8 23.3 4.5 43.8 8.2 64.3H0z" fill="#ffded3"/><path d="M0 224c13.6 15.6 27.2 31.3 46.7 32.2 19.5.9 45-12.8 65-9.9 20 2.9 34.6 22.5 41 42.7 6.5 20.2 4.9 41 5.6 59.6.6 18.6 3.6 35 6.5 51.4H0z" fill="#ffbbad"/><path d="M0 268c10.2 11.7 20.4 23.5 35 24.2 14.7.6 33.8-9.7 48.8-7.5 15 2.2 25.9 16.9 30.8 32.1 4.8 15.1 3.6 30.7 4.1 44.6.5 14 2.7 26.3 4.9 38.6H0z" fill="#ff9591"/><path d="M0 312c6.8 7.8 13.6 15.6 23.4 16.1 9.7.5 22.4-6.4 32.4-5 10 1.5 17.3 11.3 20.6 21.4 3.2 10.1 2.4 20.5 2.7 29.8.4 9.3 1.8 17.5 3.3 25.7H0z" fill="#ff6a7d"/><path d="M0 356c3.4 3.9 6.8 7.8 11.7 8.1 4.9.2 11.2-3.3 16.2-2.5 5 .7 8.7 5.6 10.3 10.7 1.6 5 1.2 10.2 1.4 14.8.1 4.7.9 8.8 1.6 12.9H0z" fill="#fe5177"/></g></svg>