<svg width="300" height="400" xmlns="http://www.w3.org/2000/svg"><path fill="#ffefe9" d="M0 0h300v400H0z"/><path d="M62.5 400c-2.9-19.5-5.7-38.9 6-52.8 11.6-14 37.8-22.4 51.3-34 13.5-11.6 14.2-26.5 18.4-42.3 4.1-15.8 11.7-32.5 23.4-44.5 11.7-11.9 27.4-19.2 42.9-24.6 15.6-5.4 30.9-9.1 46.8-15.3 15.8-6.3 32.3-15.1 48.7-24V400z" fill="#ffd3cb"/><path d="M110 400c-2.3-15.6-4.6-31.1 4.8-42.3 9.3-11.1 30.3-17.8 41-27.1 10.8-9.3 11.4-21.2 14.7-33.8 3.4-12.7 9.4-26.1 18.8-35.7 9.3-9.5 21.9-15.3 34.3-19.7 12.5-4.3 24.7-7.2 37.4-12.2 12.7-5 25.9-12.1 39-19.2v190z" fill="#f897ab"/><path d="M157.5 400c-1.7-11.7-3.4-23.4 3.6-31.7 7-8.4 22.7-13.4 30.8-20.4 8.1-6.9 8.5-15.9 11-25.3 2.5-9.5 7-19.6 14.1-26.7 7-7.2 16.4-11.6 25.7-14.8 9.3-3.3 18.5-5.5 28.1-9.2 9.5-3.8 19.3-9.1 29.2-14.4V400z" fill="#d85eaf"/><path d="M205 400c-1.1-7.8-2.3-15.6 2.4-21.1 4.7-5.6 15.1-9 20.5-13.6 5.4-4.7 5.7-10.6 7.4-16.9 1.6-6.3 4.7-13 9.3-17.8 4.7-4.8 11-7.7 17.2-9.9 6.2-2.2 12.4-3.6 18.7-6.1 6.4-2.5 12.9-6.1 19.5-9.6v95z" fill="#8b3dc8"/><path d="M252.5 400c-.6-3.9-1.1-7.8 1.2-10.6s7.6-4.4 10.3-6.8c2.7-2.3 2.8-5.3 3.6-8.4.9-3.2 2.4-6.5 4.7-8.9 2.4-2.4 5.5-3.9 8.6-4.9 3.1-1.1 6.2-1.9 9.4-3.1 3.1-1.3 6.4-3 9.7-4.8V400z" fill="#273dd6"/><g><path d="M237.5 0c-4.8 16.6-9.6 33.3-11.3 51.6-1.7 18.4-.3 38.5-12.2 51.4-12 13-37.3 18.7-57.6 21.7-20.3 3-35.5 3.2-42.9 17.6-7.4 14.4-6.9 43.1-15.9 60.4-8.9 17.4-27.2 23.5-45.1 27.4-17.8 3.9-35.2 5.7-52.5 7.4V0z" fill="#ffd3cb"/><path d="M190 0c-3.9 13.3-7.7 26.6-9.1 41.3-1.3 14.7-.1 30.8-9.7 41.1-9.6 10.4-29.9 15-46.1 17.4-16.2 2.3-28.4 2.5-34.3 14-5.9 11.6-5.6 34.5-12.7 48.4-7.1 13.9-21.8 18.7-36.1 21.9-14.3 3.1-28.1 4.5-42 5.9V0z" fill="#f897ab"/><path d="M142.5 0c-2.9 10-5.8 20-6.8 31s-.1 23.1-7.3 30.8c-7.2 7.8-22.4 11.2-34.6 13-12.2 1.8-21.3 1.9-25.7 10.6-4.4 8.6-4.2 25.8-9.5 36.2-5.4 10.4-16.4 14.1-27.1 16.4-10.7 2.4-21.1 3.5-31.5 4.5V0z" fill="#d85eaf"/><path d="M95 0c-1.9 6.7-3.9 13.3-4.5 20.6-.7 7.4-.1 15.4-4.9 20.6-4.8 5.2-14.9 7.5-23.1 8.7-8.1 1.2-14.2 1.2-17.1 7-3 5.8-2.8 17.2-6.4 24.2C35.5 88 28.1 90.5 21 92c-7.1 1.6-14.1 2.3-21 3V0z" fill="#8b3dc8"/><path d="M47.5 0c-1 3.3-1.9 6.7-2.3 10.3-.3 3.7 0 7.7-2.4 10.3-2.4 2.6-7.5 3.7-11.5 4.3-4.1.6-7.1.7-8.6 3.6-1.5 2.8-1.4 8.6-3.2 12-1.8 3.5-5.4 4.7-9 5.5-3.6.8-7 1.2-10.5 1.5V0z" fill="#273dd6"/></g></svg>