<svg width="300" height="400" xmlns="http://www.w3.org/2000/svg"><path fill="#182182" d="M0 0h300v400H0z"/><path d="M75 400c3.8-17.5 7.5-35 20.3-46.7 12.7-11.8 34.5-17.7 38-33.6 3.6-15.8-11.1-41.6-9.2-60 1.9-18.4 20.2-29.4 40.6-29.4 20.4.1 42.7 11.4 57.2 7.5 14.5-3.8 21.2-22.7 32.9-35.7 11.7-13 28.5-20 45.2-27.1v225z" fill="#202fab"/><path d="M187.5 400c1.9-8.8 3.8-17.5 10.1-23.4 6.4-5.8 17.3-8.8 19.1-16.7 1.7-8-5.6-20.8-4.7-30 1-9.2 10.2-14.8 20.4-14.7 10.1 0 21.3 5.6 28.6 3.7 7.2-1.9 10.6-11.4 16.4-17.9 5.9-6.4 14.2-10 22.6-13.5V400z" fill="#273dd6"/><g><path d="M225 0c.8 17.8 1.6 35.5-5.6 50.1-7.2 14.5-22.4 25.8-30.2 41-7.8 15.2-8.2 34.4-17.2 46.1-9 11.6-26.7 15.8-39.2 29.3-12.5 13.6-19.9 36.4-35.6 35.3-15.7-1.1-39.6-26.2-57.1-26.3-17.6-.1-28.9 24.7-40.1 49.5V0z" fill="#202fab"/><path d="M112.5 0c.4 8.9.8 17.8-2.8 25-3.6 7.3-11.2 12.9-15.1 20.6-3.9 7.6-4.1 17.2-8.6 23-4.5 5.8-13.3 7.9-19.6 14.7-6.3 6.7-10 18.2-17.8 17.6-7.8-.5-19.8-13.1-28.6-13.2-8.8 0-14.4 12.4-20 24.8V0z" fill="#273dd6"/></g></svg>