<svg width="300" height="400" xmlns="http://www.w3.org/2000/svg"><path fill="#fe5177" d="M0 0h300v400H0z"/><path d="M300 184c-16.1 13.2-32.3 26.4-48.5 28.5-16.3 2.2-32.6-6.6-43.9-20.6-11.3-13.9-17.4-33-22.3-48-4.9-15.1-8.5-26.1-26.8-31-18.3-5-51.3-3.9-61.2-15.3-9.9-11.3 3.4-35.2 9.7-53.5 6.3-18.4 5.6-31.2 5-44.1h188z" fill="#ff94ac"/><path d="M300 92c-8.1 6.6-16.1 13.2-24.3 14.3-8.1 1.1-16.3-3.4-21.9-10.3-5.6-7-8.7-16.6-11.2-24.1-2.4-7.5-4.2-13-13.4-15.5-9.1-2.5-25.6-1.9-30.6-7.6-4.9-5.7 1.7-17.6 4.9-26.8 3.1-9.1 2.8-15.6 2.5-22h94z" fill="#ffceda"/><g><path d="M0 201c17.6-10.4 35.3-20.7 49-15.5 13.6 5.3 23.3 26.2 36.9 36.1 13.6 10 31.2 9 41.9 18.1 10.7 9.1 14.5 28.4 19.2 43.1 4.7 14.7 10.3 25 24.2 34.8 13.8 9.8 35.9 19.1 46.2 32.8 10.3 13.6 9 31.6 7.6 49.6H0z" fill="#ff94ac"/><path d="M0 300.5c8.8-5.2 17.6-10.4 24.5-7.7 6.8 2.6 11.6 13 18.5 18 6.8 5 15.6 4.5 20.9 9.1 5.3 4.5 7.2 14.1 9.6 21.5 2.3 7.4 5.2 12.5 12.1 17.4 6.9 4.9 17.9 9.6 23.1 16.4 5.2 6.8 4.5 15.8 3.8 24.8H0z" fill="#ffceda"/></g></svg>