<svg width="550" height="700" fill="none" xmlns="http://www.w3.org/2000/svg"><path fill-rule="evenodd" clip-rule="evenodd" d="M328.099 628.066c-29.289 29.289-76.777 29.289-106.066 0s-29.289-76.777 0-106.066l26.165 26.165c-.119.116-.238.233-.356.352-14.644 14.644-14.644 38.388 0 53.033 14.645 14.644 38.389 14.644 53.033 0l.352-.356 26.872 26.872z" fill="#DEEFCB"/><path d="M500 425c0 41.421-33.579 75-75 75s-75-33.579-75-75 33.579-75 75-75 75 33.579 75 75z" fill="#FFCEDA"/><path d="M50 200h150v150H50V200zM200 50h150v150H200V50zM200 350h75v75h-75v-75z" fill="#52D2AB"/><path d="M200 425h75v75h-75v-75zM350 125h150v75H350v-75z" fill="#DEEFCB"/><path d="M275 350h75v75h-75v-75z" fill="#FFCEDA"/><path d="M275 425h75v75h-75v-75zM50 500h150v150H50V500z" fill="#52D2AB"/><path d="M50 350h150v150L50 350z" fill="#FFA63D"/><path d="M50 405h95v95l-95-95z" fill="#DEEFCB"/><path d="M350 275h75v75l-75-75zM500.175 350.175l-75 75-75-75h150z" fill="#52D2AB"/><path d="M50 575v-75h75l-75 75z" fill="#072A2A"/><path d="M51 453h45v45l-45-45z" fill="#52D2AB"/><path d="M50 50h150v150L50 50z" fill="#DEEFCB"/><path fill-rule="evenodd" clip-rule="evenodd" d="M125 275v38.003c-20.314.266-36.731 16.683-36.997 36.997H50c0-41.421 33.579-75 75-75zM50 275v-38.003c20.314-.266 36.731-16.683 36.997-36.997H125c0 41.421-33.579 75-75 75z" fill="#072A2A"/><path fill-rule="evenodd" clip-rule="evenodd" d="M200 275v-38.003c-20.314-.266-36.731-16.683-36.997-36.997H125c0 41.421 33.579 75 75 75z" fill="#DEEFCB"/><path fill-rule="evenodd" clip-rule="evenodd" d="M275 237c-20.987 0-38 17.013-38 38h38v-38z" fill="#FFCEDA"/><path fill-rule="evenodd" clip-rule="evenodd" d="M275 313c20.987 0 38-17.013 38-38h-38v38zM500 575c0-41.421-33.579-75-75-75v75h75z" fill="#52D2AB"/><path fill-rule="evenodd" clip-rule="evenodd" d="M200 50c-41.421 0-75 33.579-75 75h75V50zM500 200c0-41.421-33.579-75-75-75v75h75z" fill="#072A2A"/><path fill-rule="evenodd" clip-rule="evenodd" d="M125 125c-41.421 0-75 33.579-75 75h75v-75zM275 50c-41.421 0-75 33.579-75 75h75V50z" fill="#FFCEDA"/><path fill-rule="evenodd" clip-rule="evenodd" d="M425 50c-41.421 0-75 33.579-75 75h75V50zM275 200c41.421 0 75-33.579 75-75h-75v75z" fill="#FFA63D"/><path fill-rule="evenodd" clip-rule="evenodd" d="M200 575c0 41.421-33.579 75-75 75s-75-33.579-75-75h37.003c-.002.166-.003.333-.003.5 0 20.711 16.789 37.5 37.5 37.5s37.5-16.789 37.5-37.5c0-.167-.001-.334-.003-.5H200z" fill="#DEEFCB"/><path d="M200 650V500h150L200 650z" fill="#FFCEDA"/><path d="M500 500H350V350l150 150z" fill="#DEEFCB"/><path d="M350 200h150v150L350 200z" fill="#FFCEDA"/><path fill-rule="evenodd" clip-rule="evenodd" d="M275 350c41.421 0 75-33.579 75-75s-33.579-75-75-75-75 33.579-75 75 33.579 75 75 75zm-.5-37c20.711 0 37.5-16.789 37.5-37.5S295.211 238 274.5 238 237 254.789 237 275.5s16.789 37.5 37.5 37.5z" fill="#DEEFCB"/><path fill-rule="evenodd" clip-rule="evenodd" d="M274 500c-41.421 0-75 33.579-75 75h75v-75z" fill="#FFA63D"/><path fill-rule="evenodd" clip-rule="evenodd" d="m372 222.033 26.872 26.872c14.552-14.176 37.77-14.176 52.322 0l26.872-26.872c-29.289-29.289-76.777-29.289-106.066 0z" fill="#DEEFCB"/><path d="M500 650H350V500l150 150z" fill="#FFA63D"/><path fill-rule="evenodd" clip-rule="evenodd" d="M425 650c0-41.421-33.579-75-75-75v75h75z" fill="#FFCEDA"/></svg>