<svg width="700" height="925" fill="none" xmlns="http://www.w3.org/2000/svg"><path fill-rule="evenodd" clip-rule="evenodd" d="M297.076 221.934c29.289-29.289 76.777-29.289 106.066 0s29.289 76.777 0 106.066l-26.165-26.165c.119-.116.238-.233.356-.352 14.644-14.644 14.644-38.388 0-53.033-14.645-14.644-38.389-14.644-53.033 0l-.352.356-26.872-26.872z" fill="#DEEFCB"/><path d="M125.175 425c0-41.421 33.579-75 75-75s75 33.579 75 75-33.579 75-75 75-75-33.579-75-75z" fill="#FFCEDA"/><path d="M575.175 650h-150V500h150v150z" fill="#FFA63D"/><path d="M425.175 875h-150V725h150v150zM425.175 575h-75v-75h75v75z" fill="#52D2AB"/><path d="M425.175 425h-75v-75h75v75zM275.175 725h-150v-75h150v75z" fill="#DEEFCB"/><path d="M350.175 500h-75v-75h75v75z" fill="#FFCEDA"/><path d="M350.175 425h-75v-75h75v75zM650.175 350h-150V200h150v150z" fill="#52D2AB"/><path d="M425.175 350h150v150l-150-150z" fill="#FFCEDA"/><path d="M425.175 405h95v95l-95-95z" fill="#DEEFCB"/><path d="M200 575h-75v-75l75 75zM125 499.825l75-75 75 75H125z" fill="#52D2AB"/><path d="M650.175 275v75h-75l75-75z" fill="#072A2A"/><path d="M426.175 453h45v45l-45-45z" fill="#52D2AB"/><path d="M575.175 800h-150V650l150 150z" fill="#DEEFCB"/><path fill-rule="evenodd" clip-rule="evenodd" d="M500.175 575v-38.003c20.314-.266 36.731-16.683 36.997-36.997h38.003c0 41.421-33.579 75-75 75zM575.175 575v38.003c-20.314.266-36.731 16.683-36.997 36.997h-38.003c0-41.421 33.579-75 75-75z" fill="#072A2A"/><path fill-rule="evenodd" clip-rule="evenodd" d="M425.175 575v38.003c20.314.266 36.731 16.683 36.997 36.997h38.003c0-41.421-33.579-75-75-75z" fill="#DEEFCB"/><path fill-rule="evenodd" clip-rule="evenodd" d="M276 613c20.987 0 38-17.013 38-38h-38v38z" fill="#FFCEDA"/><path fill-rule="evenodd" clip-rule="evenodd" d="M276 537c-20.987 0-38 17.013-38 38h38v-38zM199.175 350c41.421 0 75-33.579 75-75h-75v75z" fill="#52D2AB"/><path fill-rule="evenodd" clip-rule="evenodd" d="M425.175 800c41.421 0 75-33.579 75-75h-75v75zM125.175 650c0 41.421 33.579 75 75 75v-75h-75z" fill="#072A2A"/><path fill-rule="evenodd" clip-rule="evenodd" d="M500.175 725c41.421 0 75-33.579 75-75h-75v75zM350.175 800c41.421 0 75-33.579 75-75h-75v75z" fill="#FFCEDA"/><path fill-rule="evenodd" clip-rule="evenodd" d="M200.175 800c41.421 0 75-33.579 75-75h-75v75zM350.175 650c-41.421 0-75 33.579-75 75h75v-75z" fill="#FFA63D"/><path fill-rule="evenodd" clip-rule="evenodd" d="M500.175 275c0-41.421 33.579-75 75-75s75 33.579 75 75h-37.003c.002-.166.003-.333.003-.5 0-20.711-16.789-37.5-37.5-37.5s-37.5 16.789-37.5 37.5c0 .167.001.334.003.5h-38.003z" fill="#DEEFCB"/><path d="M425.175 200v150h-150l150-150z" fill="#FFCEDA"/><path d="M125.175 350h150v150l-150-150z" fill="#DEEFCB"/><path d="M200 650H50V500l150 150z" fill="#FFCEDA"/><path fill-rule="evenodd" clip-rule="evenodd" d="M276 500c-41.421 0-75 33.579-75 75s33.579 75 75 75 75-33.579 75-75-33.579-75-75-75zm.5 37c-20.711 0-37.5 16.789-37.5 37.5s16.789 37.5 37.5 37.5 37.5-16.789 37.5-37.5-16.789-37.5-37.5-37.5z" fill="#DEEFCB"/><path fill-rule="evenodd" clip-rule="evenodd" d="M351.175 350c41.421 0 75-33.579 75-75h-75v75z" fill="#FFA63D"/><path fill-rule="evenodd" clip-rule="evenodd" d="m178 627.967-26.872-26.872c-14.552 14.176-37.77 14.176-52.322 0l-26.872 26.872c29.289 29.289 76.777 29.289 106.066 0z" fill="#DEEFCB"/><path fill-rule="evenodd" clip-rule="evenodd" d="M425.175 125c0 41.421 33.579 75 75 75v-75h-75z" fill="#52D2AB"/><path d="M425.175 50h150v150l-150-150z" fill="#FFA63D"/><path fill-rule="evenodd" clip-rule="evenodd" d="M500.175 50c0 41.421 33.579 75 75 75V50h-75z" fill="#FFCEDA"/></svg>